<svg xmlns="http://www.w3.org/2000/svg" viewBox="0 0 34.98 44.34"><defs><style>.cls-1{fill:#62c7c7;}.cls-2{fill:#505152;}</style></defs><title>help</title><g id="Layer_2" data-name="Layer 2"><g id="Layer_1-2" data-name="Layer 1"><path class="cls-1" d="M29.92,0H5.06A4.85,4.85,0,0,0,0,4.57V39.77a4.85,4.85,0,0,0,5.06,4.57H29.92A4.85,4.85,0,0,0,35,39.77V4.57A4.85,4.85,0,0,0,29.92,0ZM14.64,1.63H20v.62H14.64ZM19,41.33a.86.86,0,0,1-.89.81H16.5a.86.86,0,0,1-.89-.81V40.15a.86.86,0,0,1,.89-.81h1.63a.86.86,0,0,1,.89.81Zm13.44-4a1,1,0,0,1-1,.94H3.57a1,1,0,0,1-1-.94V4.77a1,1,0,0,1,1-.94H31.41a1,1,0,0,1,1,.94Z"/><path class="cls-2" d="M19.68,20.92a1,1,0,0,0-.71.29l-.17.17-.14-.14L17.45,20l1.81-1.8a3.75,3.75,0,0,1,.7-4.12,3.66,3.66,0,0,1,3.46-.91.32.32,0,0,1,.15.54l-2.13,2.13a.73.73,0,0,0,0,1l1.6,1.6a.73.73,0,0,0,1,0l2.13-2.13a.32.32,0,0,1,.54.15A3.66,3.66,0,0,1,25.83,20a3.75,3.75,0,0,1-4.12.7l-.94.94-.38-.38A1,1,0,0,0,19.68,20.92Z"/><path class="cls-2" d="M15.64,21.81,12.8,24.66a3.2,3.2,0,0,0-2.92.86l-.15.15a3.19,3.19,0,0,0,4.52,4.52l.15-.15a3.2,3.2,0,0,0,.86-2.92l2-2-.38-.38a1,1,0,0,1,0-1.41l.08-.08L16.85,23Zm-2,7.62a2.24,2.24,0,1,1,0-3.16A2.24,2.24,0,0,1,13.64,29.43Z"/><path class="cls-2" d="M8.85,13.74l.49-.49.23-.08a1,1,0,0,1,.59.24,11.86,11.86,0,0,1,1.42,1.09c1.07,1.3,5.17,5.47,6.74,7.06l-1.14,1.14C15.63,21.13,11.53,17,10.11,16A9.69,9.69,0,0,1,9,14.57C8.83,14.38,8.67,13.92,8.85,13.74Z"/><path class="cls-2" d="M17.25,23.59a.54.54,0,0,0,0,.75l7,7a.54.54,0,0,0,.76,0l2.05-2.05a.54.54,0,0,0,0-.75l-7-7a.54.54,0,0,0-.75,0Zm2.44-.1a.39.39,0,0,1,0-.55l.27-.11.27.11,5.54,5.54a.39.39,0,0,1,0,.55l-.27.11L25.23,29Zm-1.13.59.27-.11.27.11,5.54,5.54a.39.39,0,0,1,0,.55l-.27.11-.27-.11-5.54-5.54A.39.39,0,0,1,18.56,24.08Z"/></g></g></svg>