<svg xmlns="http://www.w3.org/2000/svg" viewBox="0 0 43.59 39.22"><defs><style>.cls-1{fill:#62c7c7;}.cls-2{fill:#505152;}</style></defs><title>occasion</title><g id="Layer_2" data-name="Layer 2"><g id="Layer_1-2" data-name="Layer 1"><path class="cls-1" d="M41,9.77h-.54v27H3.14v-27H2.6A2.61,2.61,0,0,0,0,12.37V36.62a2.61,2.61,0,0,0,2.6,2.6H41a2.61,2.61,0,0,0,2.6-2.6V12.37A2.61,2.61,0,0,0,41,9.77Z"/><path class="cls-2" d="M2.6,1.73a2.6,2.6,0,0,0,0,5.2H5.27V1.73Z"/><rect class="cls-2" x="12.29" y="1.73" width="5.99" height="5.2"/><path class="cls-2" d="M41,6.93a2.6,2.6,0,1,0,0-5.2H38.32v5.2Z"/><rect class="cls-2" x="25.31" y="1.73" width="5.99" height="5.2"/><rect class="cls-2" x="7.01" width="3.55" height="8.66" rx="1.3" ry="1.3"/><rect class="cls-2" x="33.03" width="3.55" height="8.66" rx="1.3" ry="1.3"/><rect class="cls-2" x="20.02" width="3.55" height="8.66" rx="1.3" ry="1.3"/><rect class="cls-2" x="5.34" y="11.39" width="7.2" height="4.93"/><rect class="cls-2" x="13.93" y="11.39" width="7.2" height="4.93"/><rect class="cls-2" x="22.52" y="11.39" width="7.2" height="4.93"/><rect class="cls-2" x="31.12" y="11.39" width="7.2" height="4.93"/><rect class="cls-2" x="5.34" y="17.63" width="7.2" height="4.93"/><rect class="cls-2" x="13.93" y="17.63" width="7.2" height="4.93"/><rect class="cls-2" x="22.52" y="17.63" width="7.2" height="4.93"/><rect class="cls-2" x="31.12" y="17.63" width="7.2" height="4.93"/><rect class="cls-2" x="5.34" y="23.88" width="7.2" height="4.93"/><rect class="cls-2" x="13.93" y="23.88" width="7.2" height="4.93"/><rect class="cls-2" x="22.52" y="23.88" width="7.2" height="4.93"/><rect class="cls-2" x="31.12" y="23.88" width="7.2" height="4.93"/><rect class="cls-2" x="5.34" y="30.13" width="7.2" height="4.93"/><rect class="cls-2" x="13.93" y="30.13" width="7.2" height="4.93"/><rect class="cls-2" x="22.52" y="30.13" width="7.2" height="4.93"/></g></g></svg>