<svg xmlns="http://www.w3.org/2000/svg" viewBox="0 0 47.44 43.71"><defs><style>.cls-1{fill:#505152;}.cls-2{fill:#62c7c7;}</style></defs><title>reports</title><g id="Layer_2" data-name="Layer 2"><g id="Layer_1-2" data-name="Layer 1"><path class="cls-1" d="M47.41,12.13a4.62,4.62,0,0,0-1.25-2.33L37.67,1.32A4.6,4.6,0,0,0,35.19,0l0,0L35.09,0H22.3a4.56,4.56,0,0,0-4.56,4.56V16.39a11.41,11.41,0,0,1,1.51-1.65,11.68,11.68,0,0,1,1.51-1.15v-9A1.55,1.55,0,0,1,22.3,3H33.43V9.33a4.6,4.6,0,0,0,4.6,4.6h6.4V35.06a1.54,1.54,0,0,1-1.55,1.54H22.3a1.55,1.55,0,0,1-1.54-1.54V33.24L19.25,34.3l-1.49,1.05a4.55,4.55,0,0,0,4.54,4.26H42.88a4.56,4.56,0,0,0,4.56-4.56V12.25Zm-11-2.79v-5L43,10.92H38A1.59,1.59,0,0,1,36.44,9.33Z"/><path class="cls-1" d="M38.6,23.32a11.35,11.35,0,0,1-.15,1.8h3.83a1.51,1.51,0,1,0,0-3H38.53a11.66,11.66,0,0,1,.07,1.21Z"/><path class="cls-1" d="M42.28,31.22a1.51,1.51,0,0,0,0-3H37.51a11.51,11.51,0,0,1-2,3Z"/><path class="cls-2" d="M37.92,22.11A11,11,0,0,0,27,12.35h-.09a11,11,0,0,0-10.59,8.48A11.18,11.18,0,0,0,16,23.34a10.9,10.9,0,0,0,.37,2.79l.06.2-15,10.61A3.42,3.42,0,0,0,0,39.72v.1a3.42,3.42,0,0,0,.63,1.91l.38.53a3.43,3.43,0,0,0,2.8,1.45h0a3.42,3.42,0,0,0,2-.63l.48-.34h0l11.47-8.11,1.51-1.07,1.51-1.06.1-.07.17.11A11,11,0,0,0,24.51,34a11.13,11.13,0,0,0,2.51.29h0A11,11,0,0,0,37.7,25.86v0c.06-.24.1-.47.14-.71a11,11,0,0,0,.15-1.8h0A10.49,10.49,0,0,0,37.92,22.11ZM11.58,37.44,5.73,41.34a2.18,2.18,0,0,1-1.21.37,2.19,2.19,0,0,1-1.22-4L9.14,33.8a2.17,2.17,0,0,1,1.22-.37,2.19,2.19,0,0,1,1.22,4Zm20.75-9.23a7.23,7.23,0,0,1-4.4,2.08,7,7,0,0,1-.73,0,7.24,7.24,0,1,1,5.12-2.12Z"/><path class="cls-1" d="M27.24,30.31h0v0a7,7,0,0,0,.73,0h0C27.7,30.3,27.47,30.31,27.24,30.31Z"/><path class="cls-1" d="M32.31,28.21a7.14,7.14,0,0,1-4.38,2.07h0a7.23,7.23,0,0,0,4.4-2.08Z"/><path class="cls-1" d="M32.4,25.12a.61.61,0,0,0-.31-.3.6.6,0,0,0-.76.3l0,0A4.51,4.51,0,0,1,27,27.81a5.91,5.91,0,0,1-2.22-.44.6.6,0,1,0-.45,1.12h0A7.14,7.14,0,0,0,27,29h0A6.69,6.69,0,0,0,28,28.92a6.16,6.16,0,0,0,2-.71,5.27,5.27,0,0,0,2.33-2.6A.6.6,0,0,0,32.4,25.12Z"/></g></g></svg>